<?xml version="1.0" encoding="UTF-8" standalone="no"?>
<svg
   xmlns:dc="http://purl.org/dc/elements/1.1/"
   xmlns:cc="http://creativecommons.org/ns#"
   xmlns:rdf="http://www.w3.org/1999/02/22-rdf-syntax-ns#"
   xmlns:svg="http://www.w3.org/2000/svg"
   xmlns="http://www.w3.org/2000/svg"
   xmlns:xlink="http://www.w3.org/1999/xlink"
   viewBox="0 0 611.276 857.89001"
   height="857.89001"
   width="611.276"
   version="1.1">
<defs
   id="defs4">
  <linearGradient
   id="SH_">
    <stop
   offset="0"
   style="stop-color:#000000;stop-opacity:1;" />
    <stop
   offset="1"
   style="stop-color:#000000;stop-opacity:0;" />
  </linearGradient>
  <linearGradient
   gradientTransform="matrix(2,0,0,1,-595.27576,0)"
   gradientUnits="userSpaceOnUse"
   y2="420.94501"
   x2="603.27576"
   y1="420.94501"
   x1="597.27576"
   id="SHG1_"
   xlink:href="#SH_" />
  <linearGradient
   gradientTransform="matrix(0,0.0268783,-74.409499,0,-21849.447,827.15397)"
   gradientUnits="userSpaceOnUse"
   y2="-297.63788"
   x2="1143.528"
   y1="-297.63788"
   x1="697"
   id="SHG2_"
   xlink:href="#SH_" />
  <style
   type="text/css">
    @keyframes marktext{0%{transform:scale(0, 1);}100%{transform:scale(1, 1)}}
  </style>
</defs>
<g
   id="PAGE1">
  <g
   id="BG">
    <rect
   style="fill:#ffffff"
   id="BGW"
   width="595.27576"
   height="841.89001"
   x="0"
   y="0" />
    <image
   y="89.999992"
   x="-1"
   id="IMG"
   preserveAspectRatio="none"
   height="752.89001"
   width="597.276"
   xlink:href="bg-sma.png"/>
    <path
   id="BGSY"
   d="m 595.276,841.89001 16,16 H 0 v -16 z"
   style="fill:url(#SHG2_)" />
    <path
   id="BGSX"
   d="m 595.27576,0 h 16 v 857.89001 l -16,-16 z"
   style="fill:url(#SHG1_)" />
  </g>
  <g
   transform="translate(22.4,31.614739)"
   id="LOGO">
    <path
   style="fill:#231f20;fill-opacity:1;fill-rule:nonzero;stroke:none"
   d="m 27.177,18.239486 c 0,3.2 -1.843,6.667 -6.789,6.667 -3.564,0 -6.813,-1.988 -6.813,-6.667 0,-3.879 2.449,-6.861 7.298,-6.594 5.164,0.29 6.304,4.291 6.304,6.594 m -9.213,-2.436 c -0.461,0.71 -0.631,1.562 -0.631,2.413 0,1.963 0.97,3.742 3.055,3.742 2.013,0 3.007,-1.637 3.007,-3.576 0,-1.372 -0.34,-2.437 -1.043,-3.099 -0.776,-0.71 -1.649,-0.733 -2.182,-0.686 -1.067,0.071 -1.697,0.426 -2.206,1.206" />
    <path
   style="fill:#231f20;fill-opacity:1;fill-rule:nonzero;stroke:none"
   d="m 32.3079,13.075286 c 0.357,-0.542 1.502,-1.43 3.321,-1.43 3.103,0 5.286,2.351 5.286,6.57 0,2.594 -0.945,6.692 -5.442,6.692 -1.618,0 -2.872,-0.9 -3.189,-1.431 v 5.298999 h -3.734 V 11.960286 h 3.758 z m 2.521,1.485 c -0.678,0 -1.382,0.27 -1.915,0.947 -0.533,0.655 -0.776,1.67 -0.776,2.776 0,1.489 0.437,2.391 0.897,2.911 0.431,0.485 1.067,0.764 1.673,0.764 1.819,0 2.619,-1.915 2.619,-3.766 0,-1.557 -0.461,-3.204 -1.988,-3.565 -0.17,-0.045 -0.34,-0.067 -0.51,-0.067" />
    <path
   style="fill:#231f20;fill-opacity:1;fill-rule:nonzero;stroke:none"
   d="m 54.7401,21.322786 c -0.342,0.721 -1.443,3.584 -6.304,3.584 -3.758,0 -6.401,-2.299 -6.401,-6.445 0,-3.055 1.504,-6.817 6.498,-6.817 0.752,0 2.934,-0.093 4.558,1.653 1.649,1.77 1.746,4.243 1.795,5.673 h -9.044 c -0.024,1.576 0.873,3.152 2.885,3.152 2.037,0 2.74,-1.333 3.201,-2.23 z m -3.71,-4.679 c -0.072,-0.534 -0.169,-1.237 -0.703,-1.795 -0.46,-0.46 -1.163,-0.703 -1.818,-0.703 -0.897,0 -1.528,0.437 -1.891,0.825 -0.509,0.557 -0.631,1.139 -0.752,1.673 z" />
    <path
   style="fill:#231f20;fill-opacity:1;fill-rule:nonzero;stroke:none"
   d="m 60.2712,13.075286 c 0.364,-0.388 0.606,-0.679 1.261,-0.994 0.582,-0.243 1.406,-0.436 2.303,-0.436 0.752,0 1.6,0.121 2.255,0.484 1.333,0.704 1.673,1.843 1.673,3.807 v 8.656 h -3.71 v -7.129 c 0,-1.139 -0.024,-1.551 -0.169,-1.891 -0.291,-0.679 -0.946,-0.97 -1.673,-0.97 -1.964,0 -1.964,1.576 -1.964,3.152 v 6.838 h -3.734 v -12.632 h 3.758 z" />
    <path
   style="fill:#231f20;fill-opacity:1;fill-rule:nonzero;stroke:none"
   d="m 69.6211,9.2999856 h 3.71 v 2.6600004 h 3.855 l -1.698,2.622 h -2.182 v 5.622 c -0.024,0.775 -0.024,1.43 0.97,1.43 l 1.334,-0.048 v 2.909 c -0.8,0.121 -1.285,0.194 -1.964,0.194 -1.285,0 -2.692,-0.073 -3.492,-1.237 -0.509,-0.751 -0.533,-1.648 -0.533,-2.861 z" />
    <path
   style="fill:#231f20;fill-opacity:1;fill-rule:nonzero;stroke:none"
   d="m 88.873605,21.334086 -0.71,1.097 c -0.665,0.976 -1.917,2.476 -5.501,2.476 -3.758005,0 -6.282005,-2.299 -6.282005,-6.445 0,-3.055 1.503,-6.817 6.498005,-6.817 0.751,0 2.933,-0.093 4.558,1.652 1.648,1.77 1.745,4.243 1.794,5.674 H 80.1866 c -0.024,1.576 0.755,3.152 2.767005,3.152 2.037,0 2.622,-1.334 3.083,-2.231 z m -3.498,-4.691 c -0.073,-0.533 -0.17,-1.236 -0.703,-1.794 -0.461,-0.461 -1.164,-0.703 -1.819,-0.703 -0.897005,0 -1.527005,0.436 -1.891005,0.824 -0.509,0.558 -0.63,1.14 -0.751,1.673 z" />
    <path
   style="fill:#231f20;fill-opacity:1;fill-rule:nonzero;stroke:none"
   d="m 101.58281,24.593486 -4.638005,-6.65 3.868005,-5.983 h -4.246005 l -1.826,2.824 -1.97,-2.824 h -4.245 l 4.173,5.983 -4.298,6.65 h 4.246 l 2.256,-3.49 2.435,3.49 z" />
    <path
   style="fill:#231f20;fill-opacity:1;fill-rule:nonzero;stroke:none"
   d="m 106.65551,14.582386 h 2.473 v -2.622 h -2.449 V 9.3003856 h -3.709 v 2.6600004 h -0.589 l -1.698,2.622 h 2.287 v 6.009 c 0,1.212 0.024,2.109 0.533,2.861 0.8,1.164 2.206,1.237 3.491,1.237 0.679,0 1.164,-0.073 1.964,-0.194 v -2.91 l -1.333,0.049 c -0.994,0 -0.994,-0.655 -0.97,-1.431 z" />
    <path
   style="fill:#231f20;fill-opacity:1;fill-rule:nonzero;stroke:none"
   d="m 112.56521,14.582686 h -0.458 v -2.236 h -0.845 v -0.387 h 2.133 v 0.387 h -0.83 z m 3.595,0 h -0.45 l 0.015,-1.619 0.024,-0.538 -0.126,0.443 -0.538,1.714 h -0.411 l -0.529,-1.714 -0.134,-0.435 0.031,0.53 0.016,1.619 h -0.442 v -2.623 h 0.624 l 0.656,2.07 0.64,-2.07 h 0.624 z" />
  </g>
  <g
   style="font-family:Arial, sans-serif"
   id="TEXT"
   transform="translate(0,88.242459)">
    <rect
   style="fill:#ff0;fill-opacity:0.5"
   id="MARK"
   width="1"
   height="1"
   x="0"
   y="0" />
    <text
   id="WP"
   style="font-variant:normal;font-weight:bold;font-stretch:normal;font-size:13.5px;font-family:'Aktiv Grotesk';-inkscape-font-specification:AktivGrotesk-Bold;writing-mode:lr-tb;fill:#ffffff;fill-opacity:1;fill-rule:nonzero;stroke:none"
   x="37.110901"
   y="101.39664">
      <tspan
   y="101.39664"
   x="37.110901 50.3274 58.373402 62.052151 67.126801 75.0783 78.088799 86.545197 94.188896 102.5994 110.61165">White
      paper</tspan>
    </text>

    <g
   id="ARTICLE">
      <text
   id="TITLE"
   style="font-variant:normal;font-weight:bold;font-stretch:normal;font-size:32px;font-family:'Aktiv Grotesk';-inkscape-font-specification:AktivGrotesk-Bold;writing-mode:lr-tb;fill:#ffffff;fill-opacity:1;fill-rule:nonzero;stroke:none"
   x="214.4252"
   y="115.4523">
        <tspan
   y="115.4523"
   x="214.4252 235.2572 254.8156 282.79959 310.79959 329.51959 348.4028 356.84119 375.34039 393.2764 405.48441 413.82361 433.38199 452.32599">Kommunikation</tspan>
        <tspan
   y="157.43625"
   x="214.4252 234.2236 253.0396 270.55319 283.01401 300.93399 309.46201 321.29239 340.1084 359.0524 366.18839 378.2684 396.9884 410.39639 417.53238 436.25879 444.6972 463.6412">gestalten für ein</tspan>
        <tspan
   y="199.42026"
   x="214.4252 233.1452 252.8828 271.69879 285.2572 301.0748 319.91641 338.56281 358.36121 377.17719 396.05078 415.80121 434.61719 451.80121">überzeugendes</tspan>
        <tspan
   y="241.40427"
   x="214.4252 234.23959 242.5788 262.44119 270.97241 283.4332 301.35321 309.74359 328.5596 345.74359">digitales</tspan>
        <tspan
   y="283.38828"
   x="214.4252 235.68919 254.40919 273.28281 293.0332 311.83319 330.6492 349.45239 362.66199 371.04599 389.84918 409.6572 428.54041 437.0748">Kundenerlebnis</tspan>
      </text>

      <text
   id="HEADING"
   style="font-variant:normal;font-weight:normal;font-stretch:normal;font-size:16px;font-family:'Aktiv Grotesk';-inkscape-font-specification:AktivGrotesk-Regular;writing-mode:lr-tb;fill:#ffffff;fill-opacity:1;fill-rule:nonzero;stroke:none"
   x="216"
   y="319.45227">
        <tspan
   y="319.45227"
   x="216 225.024 234 243.12 248.464 252.032 262.14401 271.26401 279.616 285.168 288.73599 298.59039 304.1264 312.73441 321.67841 327.23041 330.83038 339.61441 348.73441 357.0864 360.65442 365.99841 374.9744 380.83038 384.39841 394.55679 403.53281 412.6528 422.18878 431.30881 440.4288 448.39679 458.01282 471.78882 485.56479 494.5408 503.6608 507.2608 515.62878 524.23682 529.78882 533.38879 543.00476 552.12476">Fünf Best Practices für Kundenkommunikation</tspan>
        <tspan
   y="343.45227"
   x="216 225.536 234.65601 240.51199 244.08 253.2 261.80798 270.75201 279.87201 288.224 293.53439 302.65442 311.77441 315.34241 326.7984 335.9184 345.03839 354.15839 359.6944 368.3024 373.8544 377.45441 387.0704">der nächsten Generation</tspan>
      </text>

      <path
   id="LINE1"
   style="fill:none;stroke:#ffffff;stroke-width:0.75;stroke-linecap:butt;stroke-linejoin:miter;stroke-miterlimit:10;stroke-dasharray:none;stroke-opacity:1"
   d="M 0,0 H 346.813"
   transform="translate(213.4252,365.07727)" />
      <text
   id="CONTENT"
   style="font-variant:normal;font-weight:normal;font-stretch:normal;font-size:13.5px;font-family:'Aktiv Grotesk';-inkscape-font-specification:AktivGrotesk-Regular;writing-mode:lr-tb;fill:#ffffff;fill-opacity:1;fill-rule:nonzero;stroke:none"
   x="215.4252"
   y="391.45227">
        <tspan
   y="391.45227"
   x="215.4252 218.8002 230.42371 233.4342 241.21021 248.9052 251.9427 256.6272 263.8902 266.9277 271.4097 279.10471 284.04568 287.05618 295.1022 302.79721 307.73819 310.74869 320.3877 323.4252 331.4577 334.49521 339.17969 346.44269 349.48019 352.5177 359.5647 362.6022 370.29718 375.23819 382.81171 390.50668 398.53918 401.54968 411.24271 418.93768 423.47369 431.51968 439.21469 446.9097 449.9202 454.60471 459.2757 466.5387 474.58469 477.62219 482.3067 485.34421 493.4577 501.15271 508.84769 511.88519 514.92267 522.28021 525.3042">Im Zeitalter der Digitalisierung werden traditionelle,</tspan>
        <tspan
   y="409.44778"
   x="215.4252 223.4847 230.7477 238.80721 241.8447 249.5397 254.4807 262.54019 269.80319 276.85019 279.8877 287.5827 292.86121 297.3432 305.03821 308.04871 317.68768 325.80121 332.72668 340.3002 351.92371 359.61868 367.31369 371.79568 379.49069 382.50119 385.5387 397.1622 408.78571 416.48068 421.42169 424.43219 432.00571 439.70068 449.59619 452.6337 460.18021 467.87518 472.55969 475.5972 483.6297 491.32471 495.2532 498.27719">papierbasierte Dokumente immer unwichtiger.</tspan>
        <tspan
   y="427.44327"
   x="215.4252 224.6322 232.32719 236.8092 244.5042 249.44521 257.1402 264.83521 272.53021 284.15369 291.84869 299.5437 302.5542 309.39871 317.51221 320.54968 323.58719 328.06784 335.76285 343.45786 346.46835 353.51535 356.55286 364.09933 371.79434 374.80484 381.85184 386.53635 393.79935 398.48386 402.96451 411.0105 418.70551 425.7525 432.59698 440.29199 447.987 450.9975 458.2605 465.83398 470.34299 473.35352 481.04849 484.086 491.78101 499.47601">Unternehmen sollten sich stattdessen auf eine</tspan>
        <tspan
   y="445.43878"
   x="215.4252 222.2697 229.81619 237.5112 240.54871 248.12219 255.1692 262.21619 265.25369 273.28619 280.64371 283.66769 286.67819 293.73871 301.00171 308.69669 315.95969 318.99719 326.57071 334.63019 342.3252 346.86121 354.89371 359.42969 367.12469 370.1622 374.40118 382.09619 389.7912 397.83719 405.5322 408.54269 417.11383 424.68735 432.38235 440.42834 448.12335 455.81833 463.08133 470.77634 477.82336 485.88284 490.55386 497.81686 505.36334 513.05835 520.75336">schlüssige, kanalübergreifende Kundenansprache</tspan>
        <tspan
   y="463.43427"
   x="215.4252 222.14819 230.2617 237.9567 244.0587 251.75369 259.4487 264.13321 269.07419 272.11169 279.8067 284.34271 292.03769 299.7327 302.75668 305.76721 317.79568 325.49069 330.4317 333.4422 344.86319 347.9007 352.58521 357.06586 364.76083 367.79834 370.83585 378.40933 386.10434 394.13684 401.83185 409.52686 412.53735 420.11084 427.80585 435.85184 438.86234 448.32584 455.58884 463.13535 470.83035 475.77136 478.80884 486.35535 494.05035 498.53101 506.22601 513.92096">konzentrieren. Wer Mitteilungen und Nachrichten</tspan>
        <tspan
   y="481.42978"
   x="215.4252 222.6882 230.2617 234.77071 237.7812 245.82719 253.5222 261.21719 264.22769 272.2872 279.77835 286.54184 294.65533 299.73135 306.03586 313.60934 321.64185 326.12384 333.81885 341.51385 344.52435 353.16299 360.42599 368.121 375.384 378.42151 386.11649 393.81149 396.82199 404.86798 412.56299 417.504 420.5145 429.08701 436.66049 444.3555 452.40149 460.0965 467.7915 470.802 477.56549 485.2605 490.539 495.021 502.716 505.75351 508.79102 513.47546">auf den bevorzugten Kanälen der Kunden verteilt</tspan>
        <tspan
   y="499.42526"
   x="215.4252 222.9987 230.6937 238.7397 241.7502 249.80969 257.5047 260.54221 272.16571 275.17621 284.81519 292.51019 299.55719 302.5947 310.6272 318.3222 321.3327 324.37021 335.99368 347.61719 355.31219 360.2532 363.2637 370.5267 378.10019 385.6467 393.34171 396.3522 404.39819 412.0932 419.78821 422.79871 430.8447 433.8822 441.9147 444.95218 449.63669 456.89969 459.93719 467.6322 475.32721 478.33771 486.35669 489.3942 497.0892 504.1362 511.3992 516.3537 522.6582">und beim Design immer auch den digitalen Einsatz</tspan>
        <tspan
   y="517.42072"
   x="215.4252 223.4847 231.1797 236.1207 243.6942 251.24069 258.09735 265.14435 268.18185 275.72836 283.42334 288.10785 291.14536 299.17786 304.06351 307.08749 310.09799 317.15851 324.42151 332.11649 339.81149 342.82199 349.6665 357.36148 360.39899 368.09399 375.789 378.7995 387.37198 394.9455 402.6405 410.68649 418.3815 426.07651 432.7995 440.91299 452.5365 464.16 471.73349 479.4285 482.466 489.52649 496.78949 501.474 504.51151 512.625 520.32001 523.33051 526.36798 534.06299">berücksichtigt, kann seine Kundenkommunikation in</tspan>
        <tspan
   y="535.41626"
   x="215.4252 223.12019 226.1577 233.85271 241.5477 249.24271 252.2532 264.28171 271.97668 276.66119 281.3457 289.40521 296.96384 306.65686 314.35184 319.29285 327.35236 334.263 341.02786 349.14136 354.41983 358.90048 366.59549 369.633 372.6705 375.681 382.44449 390.1395 395.418 405.31351 412.57651 420.27148 428.3175 436.01248 439.04999 446.745 449.76898 452.77948 462.41849 465.45599 473.151 476.1615 484.194 491.88901 498.936 506.19901 517.82251 522.3045 529.99951">einen Wettbewerbsvorteil verwandeln. Die gesamte</tspan>
        <tspan
   y="553.41174"
   x="215.4252 224.5242 232.21921 239.2662 247.3257 251.9967 259.2597 266.80621 274.50119 282.1962 285.2067 292.05121 300.1647 303.20221 306.23969 310.72171 318.41669 321.42719 328.4877 331.52521 338.78821 343.72919 346.73969 354.3132 362.00818 370.0542 373.0647 381.12421 385.93021 393.19321 401.22571 408.92068 416.18369 423.87869 428.5632 431.5737 435.81268 443.92621 448.86719 460.49069 468.06421 471.10168 474.13919 481.8342 487.1127 491.79721 494.80771 501.65219 509.5632 519.45868 522.49622 530.19116">Ansprache sollte klar und prägnant formuliert sowie</tspan>
        <tspan
   y="571.40723"
   x="215.4252 220.3662 223.4037 230.9502 238.6452 243.3297 246.3672 249.40469 257.0997 260.13721 267.83221 275.52719 282.25018 290.36371 298.05869 302.2977 310.41119 315.3522 326.97571 329.99969 333.01019 341.04269 348.7377 356.43271 363.69568 371.2692 374.27969 381.85318 389.54819 397.59421 400.60471 407.3277 415.44119 423.1362 427.82068 432.35669 440.47018 443.50769 446.5452 449.5827 457.27768 462.55618 467.24069 470.25119 477.0957 484.79071 487.82822 495.52319 498.54721 501.55771 510.9267 518.1897 524.4942 532.06769">richtlinienkonform, genau und kontrolliert sein. Dazu</tspan>
        <tspan
   y="589.40271"
   x="215.4252 227.04871 234.62221 241.6692 248.5137 256.20871 263.90369 266.91418 274.96021 277.99771 285.69269 288.70319 293.6442 296.6817 304.22821 311.92319 316.6077 319.6452 327.6777 335.37271 343.06769 346.07819 355.4472 362.71021 367.1922 374.88721 382.58218 385.59268 397.21619 400.25369 404.9382 407.9487 415.99469 423.6897 428.63071 431.6412 440.32169 448.43518 453.2142 458.16736 468.06284 475.32584 479.86185 487.55685 490.56735 495.07635 502.64984 507.59085">müssen die richtigen Daten mit der Software für</tspan>
        <tspan
   y="607.39825"
   x="215.4252 225.01019 232.58369 239.63071 244.11134 252.22485 263.84836 271.54333 276.48434 279.49484 289.07983 297.19336 308.81683 320.44034 328.01385 335.70886 338.74634 346.15784 353.42084 358.10535 361.14285 369.25635 376.95135 379.96185 391.38284 398.64584 406.34085 413.60385 421.63635 429.33133 440.95483 448.64984 456.34485 461.02936 464.03986 467.32034 476.90536 486.49036 497.91135 501.46185 504.47235 512.04584 519.74084 527.78687">Customer Communication Management (CCM) und</tspan>
        <tspan
   y="625.39374"
   x="215.4252 223.47121 231.1662 238.86121 241.8717 251.5377 259.2327 266.07721 273.62369 281.3187 288.5817 293.36069 298.0452 305.09219 313.1517 317.68768 325.6662 331.76819 339.4632 346.51019 353.35471 361.04968 368.74469 371.75519 378.66721 385.72769 393.4227 400.96921 408.66418 413.2002 421.31369 429.0087 432.0462 439.0932 442.13071 449.82568 455.10419 459.7887 462.79919 472.49219 480.18719 484.72321 492.7692 500.4642 508.15921 511.1832">den Geschäftsprozessen synchronisiert werden,</tspan>
        <tspan
   y="643.38922"
   x="215.4252 223.47121 226.5087 234.2037 237.2142 244.4772 252.1722 255.18269 263.2287 270.92371 278.61871 281.62921 290.20169 297.77521 305.47018 313.5162 321.21121 328.90619 333.02371 339.3147 347.42819 355.00171 362.54819 370.24319 378.3027 386.4162 389.4537 397.14868 401.83319 408.88019 411.89069 419.15369 426.84869 433.69183 441.38684 446.34134 452.44333 460.13834 467.83334">die an den Kunden-Touchpoints ansetzen.</tspan>
      </text>

      <path
   id="LINE2"
   style="fill:none;stroke:#ffffff;stroke-width:0.75;stroke-linecap:butt;stroke-linejoin:miter;stroke-miterlimit:10;stroke-dasharray:none;stroke-opacity:1"
   d="M 0,0 H 346.813"
   transform="translate(213.4252,661.82727)" />
    </g>
  </g>
</g>
</svg>
