<svg id="LOGO" xmlns="http://www.w3.org/2000/svg" viewBox="0 0 120 39"><g fill="#fff"><path d="M17.54 17.19c-.44.69-.6 1.52-.6 2.35 0 1.91.94 3.64 2.97 3.64 1.96 0 2.93-1.6 2.93-3.48 0-1.34-.33-2.38-1.02-3.02-.75-.7-1.6-.72-2.12-.67-1.04.07-1.66.41-2.16 1.18m8.99 2.37c0 3.12-1.8 6.5-6.62 6.5-3.48 0-6.64-1.94-6.64-6.5 0-3.78 2.38-6.69 7.11-6.43 5.03.29 6.15 4.18 6.15 6.43M58.8 14.53c.35-.38.58-.67 1.22-.97a6.03 6.03 0 0 1 2.25-.43c.73 0 1.56.12 2.2.47 1.3.69 1.62 1.8 1.62 3.71v8.44h-3.61V18.8c0-1.1-.02-1.5-.17-1.84-.28-.66-.92-.95-1.63-.95-1.91 0-1.91 1.54-1.91 3.08v6.66h-3.64V13.44h3.66zM49.78 18a2.94 2.94 0 0 0-.68-1.75 2.56 2.56 0 0 0-3.62.12c-.5.55-.61 1.11-.73 1.63zm3.62 4.56c-.33.7-1.4 3.5-6.14 3.5-3.67 0-6.24-2.24-6.24-6.28 0-2.98 1.46-6.65 6.33-6.65.73 0 2.86-.09 4.44 1.61 1.61 1.73 1.7 4.14 1.75 5.53h-8.81c-.03 1.54.85 3.07 2.8 3.07 2 0 2.68-1.3 3.13-2.17zM104 16h2.41v-2.56h-2.38v-2.6h-3.62v2.6h-.57l-1.66 2.55h2.23v5.86c0 1.18.02 2.06.52 2.8.78 1.12 2.15 1.2 3.4 1.2.67 0 1.14-.07 1.92-.2v-2.83l-1.3.05c-.97 0-.97-.64-.95-1.4zM67.9 10.85h3.62v2.59h3.76l-1.66 2.55H71.5v5.48c-.03.76-.03 1.4.94 1.4l1.3-.05v2.84c-.78.11-1.25.19-1.91.19-1.25 0-2.63-.08-3.4-1.2-.5-.74-.52-1.62-.52-2.8zM113.27 16h-.44l.01-1.58.03-.53-.13.43-.52 1.68h-.4l-.52-1.68-.13-.42.03.52.02 1.58h-.43v-2.56h.6l.64 2.02.63-2.02h.6zm-3.5 0h-.45v-2.18h-.83v-.38h2.08v.38h-.8z"/><path d="M83.26 18a2.94 2.94 0 0 0-.68-1.75 2.56 2.56 0 0 0-3.62.12c-.5.55-.61 1.11-.73 1.63zm3.41 4.58l-.7 1.06c-.64.96-1.86 2.42-5.35 2.42-3.67 0-6.13-2.24-6.13-6.28 0-2.98 1.47-6.65 6.34-6.65.73 0 2.86-.09 4.44 1.61 1.6 1.73 1.7 4.14 1.75 5.53H78.2c-.02 1.54.74 3.07 2.7 3.07 1.99 0 2.56-1.3 3-2.17z"/><path d="M99.06 25.75l-4.52-6.48 3.77-5.83h-4.14l-1.78 2.75-1.92-2.75h-4.14l4.07 5.83-4.19 6.48h4.14l2.2-3.4 2.37 3.4zM34 15.97c-.67 0-1.35.27-1.87.93a4.34 4.34 0 0 0-.76 2.7c0 1.45.42 2.33.87 2.84.42.47 1.04.74 1.63.74 1.78 0 2.56-1.86 2.56-3.67 0-1.51-.45-3.12-1.94-3.47a1.91 1.91 0 0 0-.5-.07m-2.46-1.44c.35-.53 1.47-1.4 3.24-1.4 3.03 0 5.15 2.3 5.15 6.4 0 2.53-.92 6.53-5.3 6.53-1.58 0-2.8-.88-3.1-1.4v5.17h-3.65v-16.4h3.66z"/></g></svg>
